<svg width="18" height="15" viewBox="0 0 18 15" fill="none" xmlns="http://www.w3.org/2000/svg">
<path d="M4 3.67969C4 4.27865 4.14323 4.83854 4.42969 5.35938C4.74219 5.85417 5.14583 6.25781 5.64062 6.57031C6.16146 6.85677 6.72135 7 7.32031 7C7.94531 7 8.50521 6.85677 9 6.57031C9.52083 6.25781 9.92448 5.85417 10.2109 5.35938C10.5234 4.83854 10.6797 4.27865 10.6797 3.67969C10.6797 3.05469 10.5234 2.49479 10.2109 2C9.92448 1.47917 9.52083 1.07552 9 0.789062C8.50521 0.476562 7.94531 0.320312 7.32031 0.320312C6.72135 0.320312 6.16146 0.476562 5.64062 0.789062C5.14583 1.07552 4.74219 1.47917 4.42969 2C4.14323 2.49479 4 3.05469 4 3.67969ZM7.90625 7.85938C7.72396 8.22396 7.58073 8.61458 7.47656 9.03125C7.3724 9.44792 7.32031 9.8776 7.32031 10.3203C7.32031 10.9453 7.41146 11.5443 7.59375 12.1172C7.80208 12.6901 8.0625 13.2109 8.375 13.6797H0.679688V11.4531C0.679688 11.0365 0.770833 10.6328 0.953125 10.2422C1.16146 9.85156 1.44792 9.55208 1.8125 9.34375C2.61979 8.875 3.49219 8.51042 4.42969 8.25C5.36719 7.96354 6.33073 7.82031 7.32031 7.82031C7.42448 7.82031 7.51562 7.83333 7.59375 7.85938C7.69792 7.85938 7.80208 7.85938 7.90625 7.85938ZM16.3047 10.3203C16.3047 10.4245 16.2917 10.5156 16.2656 10.5938C16.2656 10.6719 16.2526 10.763 16.2266 10.8672L17.2031 11.6875L16.3438 13.1328L15.1328 12.7422C14.8724 12.9505 14.5729 13.1198 14.2344 13.25L14 14.5H12.3203L12.0859 13.25C11.7474 13.1198 11.4479 12.9505 11.1875 12.7422L9.97656 13.1328L9.15625 11.6875L10.0938 10.8672C10.0677 10.763 10.0547 10.6719 10.0547 10.5938C10.0547 10.5156 10.0547 10.4245 10.0547 10.3203C10.0547 10.2422 10.0547 10.1641 10.0547 10.0859C10.0547 9.98177 10.0677 9.89062 10.0938 9.8125L9.15625 8.95312L9.97656 7.50781L11.1875 7.9375C11.4479 7.70312 11.7474 7.52083 12.0859 7.39062L12.3203 6.17969H14L14.2344 7.39062C14.5729 7.52083 14.8724 7.70312 15.1328 7.9375L16.3438 7.50781L17.2031 8.95312L16.2266 9.8125C16.2526 9.89062 16.2656 9.98177 16.2656 10.0859C16.2917 10.1641 16.3047 10.2422 16.3047 10.3203ZM13.1797 12C13.6224 12 14 11.8438 14.3125 11.5312C14.651 11.1927 14.8203 10.7891 14.8203 10.3203C14.8203 9.8776 14.651 9.5 14.3125 9.1875C14 8.84896 13.6224 8.67969 13.1797 8.67969C12.7109 8.67969 12.3073 8.84896 11.9688 9.1875C11.6562 9.5 11.5 9.8776 11.5 10.3203C11.5 10.7891 11.6562 11.1927 11.9688 11.5312C12.3073 11.8438 12.7109 12 13.1797 12Z" fill="#FEFEFE"/>
</svg>
